<!-- <svg width="83" height="68" viewBox="0 0 83 68" fill="none" xmlns="http://www.w3.org/2000/svg">
<path d="M68 34C68 52.7777 52.7777 68 34 68C15.2223 68 0 52.7777 0 34C0 15.2223 15.2223 0 34 0C52.7777 0 68 15.2223 68 34Z" fill="#4F4F4F"/>
<path d="M83 34C83 52.7777 67.7777 68 49 68C30.2223 68 15 52.7777 15 34C15 15.2223 30.2223 0 49 0C67.7777 0 83 15.2223 83 34Z" fill="#8785FF"/>
<path fill-rule="evenodd" clip-rule="evenodd" d="M54.0371 23.9261H37.6667C36.9741 23.9261 36.4075 24.4928 36.4075 25.1854V42.815L41.4445 37.778H54.0371C54.7297 37.778 55.2964 37.2113 55.2964 36.5187V25.1854C55.2964 24.4928 54.7297 23.9261 54.0371 23.9261ZM52.7779 26.4446V35.2594H40.3993L39.6564 36.0024L38.926 36.7327V26.4446H52.7779ZM57.8149 28.9632H60.3334C61.026 28.9632 61.5927 29.5299 61.5927 30.2225V49.1114L56.5556 44.0743H42.7038C42.0112 44.0743 41.4445 43.5077 41.4445 42.8151V40.2965H57.8149V28.9632Z" fill="white"/>
</svg> -->

<svg width="68" height="68" viewBox="0 0 68 68" fill="none" xmlns="http://www.w3.org/2000/svg">
<g filter="url(#filter0_d_1_541)">
<path d="M64 30C64 46.5685 50.5685 60 34 60C17.4315 60 4 46.5685 4 30C4 13.4315 17.4315 0 34 0C50.5685 0 64 13.4315 64 30Z" fill="#F2F2F2"/>
</g>
<path fill-rule="evenodd" clip-rule="evenodd" d="M38.4443 21.1107H23.9999C23.3888 21.1107 22.8888 21.6107 22.8888 22.2218V37.7773L27.3332 33.3329H38.4443C39.0555 33.3329 39.5555 32.8329 39.5555 32.2218V22.2218C39.5555 21.6107 39.0555 21.1107 38.4443 21.1107ZM37.3332 23.3328V31.1106H26.411L25.7555 31.7661L25.111 32.4106V23.3328H37.3332ZM41.7777 25.5551H43.9999C44.611 25.5551 45.111 26.0551 45.111 26.6662V43.3329L40.6666 38.8885H28.4443C27.8332 38.8885 27.3332 38.3885 27.3332 37.7773V35.5551H41.7777V25.5551Z" fill="#8885FF"/>
<defs>
<filter id="filter0_d_1_541" x="0" y="0" width="68" height="68" filterUnits="userSpaceOnUse" color-interpolation-filters="sRGB">
<feFlood flood-opacity="0" result="BackgroundImageFix"/>
<feColorMatrix in="SourceAlpha" type="matrix" values="0 0 0 0 0 0 0 0 0 0 0 0 0 0 0 0 0 0 127 0" result="hardAlpha"/>
<feOffset dy="4"/>
<feGaussianBlur stdDeviation="2"/>
<feColorMatrix type="matrix" values="0 0 0 0 0 0 0 0 0 0 0 0 0 0 0 0 0 0 0.1 0"/>
<feBlend mode="normal" in2="BackgroundImageFix" result="effect1_dropShadow_1_541"/>
<feBlend mode="normal" in="SourceGraphic" in2="effect1_dropShadow_1_541" result="shape"/>
</filter>
</defs>
</svg>
